<svg width="270" height="49" viewBox="0 0 270 49" fill="none" xmlns="http://www.w3.org/2000/svg">
<path d="M1.69432 36.8657L1.94348 37.065L1.92355 36.6862L1.69432 36.8657Z" fill="#FDBD16"/>
<path d="M21.9064 28.0131L2.08301 37.1747L21.9064 49L41.7198 37.1747L21.9064 28.0131Z" fill="url(#paint0_linear)"/>
<path d="M41.8594 37.065L42.1185 36.8657L41.8893 36.6862L41.8594 37.065Z" fill="#FDBD16"/>
<path d="M1.9534 37.2345L2.08297 37.1747L1.94344 37.0651L1.9534 37.2345Z" fill="#06B9EC"/>
<path d="M16.963 0L0 7.84567L1.92353 36.6862L18.5277 23.5071L16.963 0Z" fill="url(#paint1_linear)"/>
<path d="M18.5277 23.5071L1.92354 36.6862L1.94347 37.065L2.083 37.1747L18.9164 29.3888L18.5277 23.5071Z" fill="#006F92"/>
<path d="M43.8127 7.84567L26.8497 0L25.285 23.5071L41.8891 36.6862L43.8127 7.84567Z" fill="url(#paint2_linear)"/>
<path d="M41.8493 37.2345L41.8593 37.0651L41.7198 37.1747L41.8493 37.2345Z" fill="#D13C9A"/>
<path d="M25.285 23.5071L24.8863 29.3888L41.7197 37.1747L41.8593 37.065L41.8892 36.6862L25.285 23.5071Z" fill="#006F92"/>
<path d="M21.9064 49L41.7198 37.1747L21.9064 28.0131" fill="#009282"/>
<path d="M60.7825 29.4791C59.9095 29.4791 59.1134 29.3387 58.4011 29.0509C57.6887 28.7631 57.0811 28.3489 56.5783 27.8083C56.0755 27.2608 55.6914 26.6079 55.412 25.8287C55.1397 25.0565 55 24.172 55 23.1821V14.8705L57.8074 14.1685V23.3506C57.8074 23.8561 57.8703 24.3124 57.996 24.7336C58.1217 25.1548 58.3103 25.5128 58.5547 25.8217C58.8061 26.1305 59.1204 26.3692 59.4905 26.5447C59.8676 26.7202 60.2936 26.8045 60.7825 26.8045C61.2853 26.8045 61.7183 26.7202 62.0954 26.5447C62.4726 26.3692 62.7798 26.1305 63.0312 25.8217C63.2827 25.5128 63.4712 25.1548 63.5969 24.7336C63.7226 24.3124 63.7855 23.8561 63.7855 23.3506V14.1685L66.5929 14.8705V23.1821C66.5929 24.1158 66.4602 24.9722 66.1879 25.7444C65.9155 26.5167 65.5314 27.1836 65.0216 27.7311C64.5118 28.2787 63.9042 28.7069 63.1919 29.0158C62.4795 29.3247 61.6694 29.4791 60.7825 29.4791Z" fill="white"/>
<path d="M71.4815 20.2338H71.6491C71.9704 19.7213 72.3964 19.3141 72.9411 19.0123C73.4789 18.7104 74.1004 18.563 74.7918 18.563C75.4273 18.563 75.993 18.6683 76.4819 18.8789C76.9637 19.0895 77.3688 19.3843 77.6761 19.7704C77.9903 20.1565 78.2278 20.6128 78.3814 21.1534C78.542 21.6869 78.6189 22.2836 78.6189 22.9435V29.1562H75.8952V23.2664C75.8952 22.5293 75.7276 21.9817 75.4064 21.6237C75.0781 21.2727 74.6032 21.0902 73.9817 21.0902C73.6046 21.0902 73.2763 21.1674 72.99 21.3289C72.7037 21.4903 72.4662 21.708 72.2637 21.9747C72.0612 22.2485 71.9075 22.5714 71.8098 22.9365C71.705 23.3085 71.6561 23.7016 71.6561 24.1158V29.1351H68.9325V18.8929H71.4955V20.2338H71.4815Z" fill="white"/>
<path d="M82.3831 17.517C82.1456 17.517 81.9221 17.4679 81.7056 17.3836C81.4892 17.2924 81.3006 17.166 81.14 17.0046C80.9793 16.8431 80.8536 16.6606 80.7628 16.45C80.6721 16.2394 80.6302 16.0077 80.6302 15.762C80.6302 15.5093 80.6721 15.2776 80.7628 15.0741C80.8536 14.8635 80.9793 14.6809 81.14 14.5195C81.3006 14.358 81.4892 14.2317 81.7056 14.1404C81.9221 14.0491 82.1526 14 82.3831 14C82.8719 14 83.284 14.1685 83.6331 14.5125C83.9823 14.8494 84.1569 15.2706 84.1569 15.755C84.1569 16.2394 83.9823 16.6606 83.6331 17.0046C83.2909 17.3415 82.8719 17.517 82.3831 17.517ZM81.0352 29.1422V18.8929H83.7588V29.1422H81.0352Z" fill="white"/>
<path d="M87.2786 21.2376H85.4908V18.8929H87.2786V16.457L90.0022 15.755V18.8929H92.5024V21.2376H90.0022V25.3303C90.0022 25.576 90.0302 25.8006 90.0721 26.0112C90.121 26.2218 90.2118 26.3973 90.3514 26.5377C90.547 26.7694 90.8263 26.8817 91.1825 26.8817C91.4199 26.8817 91.6085 26.8607 91.7482 26.8115C91.8878 26.7624 92.0205 26.6992 92.1462 26.615L92.9145 29.0228C92.5932 29.1773 92.251 29.2896 91.8809 29.3668C91.5107 29.444 91.1057 29.4791 90.6657 29.4791C90.1489 29.4791 89.688 29.3949 89.2829 29.2334C88.8779 29.072 88.5287 28.8473 88.2563 28.5595C87.6068 27.9207 87.2786 27.0081 87.2786 25.8287V21.2376Z" fill="white"/>
<path d="M104.047 26.6781C103.572 27.5135 102.936 28.1944 102.14 28.7069C101.344 29.2194 100.366 29.4791 99.2138 29.4791C98.4386 29.4791 97.7193 29.3457 97.0628 29.0719C96.4063 28.7982 95.8337 28.4191 95.3448 27.9347C94.8629 27.4503 94.4788 26.8747 94.2135 26.2078C93.9411 25.5479 93.8084 24.8178 93.8084 24.0175C93.8084 23.2804 93.9411 22.5784 94.2065 21.9186C94.4719 21.2587 94.835 20.676 95.3099 20.1846C95.7778 19.6862 96.3365 19.2931 96.986 18.9982C97.6355 18.7034 98.3408 18.556 99.123 18.556C99.9401 18.556 100.666 18.6893 101.309 18.9631C101.944 19.2369 102.482 19.609 102.908 20.0934C103.341 20.5777 103.662 21.1464 103.886 21.7992C104.109 22.4521 104.221 23.1681 104.221 23.9333C104.221 24.0316 104.221 24.1158 104.221 24.186C104.207 24.2703 104.2 24.3475 104.2 24.4177C104.186 24.4879 104.179 24.5651 104.179 24.6493H96.4971C96.553 25.0705 96.6647 25.4286 96.8393 25.7234C97.0139 26.0253 97.2304 26.278 97.4818 26.4745C97.7402 26.6781 98.0196 26.8255 98.3269 26.9168C98.6341 27.0081 98.9414 27.0502 99.2627 27.0502C99.8842 27.0502 100.401 26.9098 100.813 26.622C101.225 26.3341 101.546 25.9761 101.777 25.5479L104.047 26.6781ZM101.567 22.7048C101.553 22.5223 101.497 22.3187 101.393 22.1011C101.288 21.8764 101.134 21.6658 100.939 21.4763C100.736 21.2797 100.485 21.1183 100.192 20.9989C99.8912 20.8726 99.535 20.8094 99.123 20.8094C98.5364 20.8094 98.0266 20.9779 97.5796 21.3148C97.1326 21.6518 96.8254 22.1151 96.6438 22.7188H101.567V22.7048Z" fill="white"/>
<path d="M113.663 27.9136H113.495C113.244 28.3489 112.86 28.7139 112.329 29.0228C111.798 29.3317 111.149 29.4861 110.374 29.4861C109.724 29.4861 109.103 29.3527 108.509 29.079C107.922 28.8052 107.399 28.4331 106.945 27.9487C106.491 27.4714 106.135 26.8957 105.876 26.2218C105.611 25.5479 105.478 24.8178 105.478 24.0245C105.478 23.2313 105.611 22.4942 105.876 21.8273C106.142 21.1604 106.498 20.5847 106.945 20.1004C107.399 19.623 107.915 19.2439 108.509 18.9701C109.096 18.6964 109.717 18.563 110.374 18.563C111.149 18.563 111.798 18.7174 112.329 19.0263C112.853 19.3352 113.244 19.7002 113.495 20.1355H113.663L113.495 18.6683V14.1685L116.219 14.8705V29.1421H113.663V27.9136ZM110.932 26.9519C111.289 26.9519 111.638 26.8887 111.959 26.7553C112.287 26.622 112.574 26.4324 112.825 26.1797C113.076 25.927 113.279 25.6251 113.426 25.2601C113.579 24.9021 113.656 24.4879 113.656 24.0245C113.656 23.5682 113.579 23.1541 113.426 22.789C113.272 22.431 113.069 22.1221 112.825 21.8694C112.574 21.6167 112.287 21.4271 111.959 21.2938C111.631 21.1604 111.289 21.0972 110.932 21.0972C110.569 21.0972 110.227 21.1674 109.899 21.3078C109.571 21.4482 109.284 21.6448 109.033 21.8905C108.781 22.1432 108.579 22.4521 108.432 22.8101C108.279 23.1751 108.202 23.5753 108.202 24.0245C108.202 24.4738 108.279 24.874 108.432 25.239C108.586 25.6041 108.788 25.9059 109.033 26.1586C109.284 26.4114 109.571 26.6079 109.899 26.7413C110.234 26.8817 110.576 26.9519 110.932 26.9519Z" fill="white"/>
<path d="M123.461 14.1685H128.496C129.677 14.1685 130.738 14.351 131.681 14.709C132.624 15.074 133.427 15.5865 134.097 16.2464C134.761 16.9133 135.271 17.6995 135.627 18.6191C135.983 19.5388 136.158 20.5496 136.158 21.6518C136.158 22.768 135.983 23.7859 135.627 24.7055C135.271 25.6251 134.761 26.4114 134.097 27.0712C133.434 27.7311 132.624 28.2366 131.681 28.6016C130.738 28.9666 129.677 29.1421 128.496 29.1421H123.461V14.1685ZM128.371 26.4675C129.188 26.4675 129.907 26.3552 130.536 26.1235C131.157 25.8919 131.681 25.569 132.093 25.1548C132.505 24.7406 132.819 24.2281 133.029 23.6384C133.238 23.0488 133.343 22.3889 133.343 21.6588C133.343 20.9287 133.238 20.2759 133.029 19.6792C132.819 19.0895 132.512 18.584 132.093 18.1628C131.674 17.7416 131.157 17.4187 130.536 17.1871C129.914 16.9554 129.188 16.8431 128.371 16.8431H126.269V26.4675H128.371Z" fill="white"/>
<path d="M139.607 17.517C139.37 17.517 139.147 17.4679 138.93 17.3836C138.714 17.2924 138.525 17.166 138.364 17.0046C138.204 16.8431 138.078 16.6606 137.987 16.45C137.896 16.2394 137.855 16.0077 137.855 15.762C137.855 15.5093 137.896 15.2776 137.987 15.0741C138.078 14.8635 138.204 14.6809 138.364 14.5195C138.525 14.358 138.714 14.2317 138.93 14.1404C139.147 14.0491 139.37 14.007 139.607 14.007C140.096 14.007 140.508 14.1755 140.858 14.5195C141.207 14.8564 141.381 15.2776 141.381 15.762C141.381 16.2464 141.207 16.6676 140.858 17.0046C140.515 17.3415 140.096 17.517 139.607 17.517ZM138.26 29.1422V18.8929H140.983V29.1422H138.26Z" fill="white"/>
<path d="M148.079 34C147.359 34 146.717 33.9087 146.158 33.7192C145.592 33.5296 145.104 33.2839 144.692 32.9891C144.28 32.6872 143.93 32.3573 143.651 31.9923C143.372 31.6272 143.169 31.2692 143.05 30.9042L145.648 29.8582C145.844 30.3987 146.158 30.8199 146.605 31.1218C147.052 31.4236 147.541 31.5711 148.079 31.5711C148.938 31.5711 149.622 31.2903 150.118 30.7287C150.621 30.1671 150.865 29.3949 150.865 28.4121V27.703H150.698C150.376 28.1523 149.957 28.5033 149.44 28.7631C148.924 29.0228 148.309 29.1492 147.597 29.1492C146.982 29.1492 146.396 29.0228 145.816 28.7771C145.236 28.5314 144.733 28.1734 144.287 27.7101C143.84 27.2467 143.483 26.6922 143.204 26.0463C142.925 25.4005 142.785 24.6704 142.785 23.8701C142.785 23.0698 142.925 22.3398 143.204 21.6869C143.483 21.027 143.84 20.4724 144.287 20.0091C144.733 19.5458 145.243 19.1878 145.816 18.9421C146.389 18.6964 146.982 18.57 147.597 18.57C148.302 18.57 148.917 18.6964 149.44 18.9561C149.957 19.2158 150.383 19.5668 150.698 20.0091H150.865V18.8929H153.47V28.4121C153.47 29.2755 153.337 30.0547 153.072 30.7427C152.807 31.4307 152.443 32.0203 151.969 32.4977C151.494 32.9821 150.935 33.3471 150.272 33.6069C149.615 33.8666 148.882 34 148.079 34ZM148.183 26.6781C148.519 26.6781 148.847 26.6149 149.168 26.4956C149.496 26.3692 149.783 26.1937 150.034 25.948C150.286 25.7094 150.488 25.4145 150.642 25.0635C150.795 24.7125 150.872 24.3124 150.872 23.8631C150.872 23.4138 150.795 23.0067 150.642 22.6486C150.488 22.2906 150.286 21.9958 150.034 21.7571C149.783 21.5184 149.496 21.3359 149.168 21.2095C148.84 21.0902 148.512 21.027 148.183 21.027C147.848 21.027 147.52 21.0902 147.206 21.2095C146.884 21.3289 146.605 21.5184 146.354 21.7641C146.102 22.0098 145.9 22.3047 145.753 22.6557C145.599 23.0067 145.523 23.4068 145.523 23.8561C145.523 24.3124 145.599 24.7055 145.753 25.0565C145.907 25.4075 146.109 25.7023 146.354 25.941C146.605 26.1797 146.891 26.3622 147.206 26.4886C147.52 26.6149 147.848 26.6781 148.183 26.6781Z" fill="white"/>
<path d="M157.318 17.517C157.081 17.517 156.857 17.4679 156.641 17.3836C156.424 17.2924 156.236 17.166 156.075 17.0046C155.914 16.8431 155.789 16.6606 155.698 16.45C155.607 16.2394 155.565 16.0077 155.565 15.762C155.565 15.5093 155.607 15.2776 155.698 15.0741C155.789 14.8635 155.914 14.6809 156.075 14.5195C156.236 14.358 156.424 14.2317 156.641 14.1404C156.857 14.0491 157.081 14.007 157.318 14.007C157.807 14.007 158.219 14.1755 158.568 14.5195C158.917 14.8564 159.092 15.2776 159.092 15.762C159.092 16.2464 158.917 16.6676 158.568 17.0046C158.219 17.3415 157.807 17.517 157.318 17.517ZM155.963 29.1422V18.8929H158.687V29.1422H155.963Z" fill="white"/>
<path d="M162.207 21.2376H160.419V18.8929H162.207V16.457L164.93 15.755V18.8929H167.43V21.2376H164.93V25.3303C164.93 25.576 164.958 25.8006 165 26.0112C165.049 26.2218 165.14 26.3973 165.28 26.5377C165.475 26.7694 165.754 26.8817 166.111 26.8817C166.348 26.8817 166.537 26.8607 166.676 26.8115C166.816 26.7624 166.949 26.6992 167.074 26.615L167.843 29.0228C167.521 29.1773 167.179 29.2896 166.809 29.3668C166.439 29.444 166.034 29.4791 165.594 29.4791C165.077 29.4791 164.616 29.3949 164.211 29.2334C163.806 29.072 163.457 28.8473 163.184 28.5595C162.535 27.9207 162.207 27.0081 162.207 25.8287V21.2376Z" fill="white"/>
<path d="M175.504 28.054H175.336C175.015 28.4472 174.631 28.7771 174.184 29.0579C173.73 29.3387 173.157 29.4791 172.445 29.4791C171.914 29.4791 171.425 29.3878 170.957 29.2194C170.496 29.0439 170.084 28.8052 169.742 28.4963C169.4 28.1874 169.128 27.8224 168.932 27.3871C168.736 26.9519 168.639 26.4816 168.639 25.9621C168.639 25.4356 168.743 24.9512 168.953 24.53C169.162 24.1088 169.456 23.7367 169.826 23.4349C170.203 23.126 170.643 22.8943 171.146 22.7329C171.656 22.5714 172.2 22.4942 172.801 22.4942C173.464 22.4942 174.016 22.5504 174.442 22.6557C174.875 22.761 175.224 22.8663 175.504 22.9786V22.6627C175.504 22.1151 175.287 21.6658 174.861 21.3148C174.428 20.9568 173.897 20.7813 173.262 20.7813C172.319 20.7813 171.523 21.1815 170.866 21.9747L168.89 20.6128C169.973 19.2509 171.446 18.563 173.325 18.563C174.903 18.563 176.111 18.935 176.942 19.6862C177.773 20.4303 178.192 21.5395 178.192 22.9996V29.1492H175.511V28.054H175.504ZM175.504 24.9863C175.182 24.8319 174.854 24.7125 174.512 24.6213C174.177 24.53 173.8 24.4879 173.402 24.4879C172.752 24.4879 172.249 24.6283 171.893 24.9161C171.537 25.2039 171.362 25.5549 171.362 25.9691C171.362 26.3903 171.53 26.7202 171.872 26.973C172.207 27.2257 172.605 27.352 173.045 27.352C173.409 27.352 173.737 27.2889 174.044 27.1555C174.351 27.0221 174.61 26.8466 174.826 26.636C175.043 26.4184 175.21 26.1727 175.329 25.8849C175.448 25.583 175.504 25.2882 175.504 24.9863Z" fill="white"/>
<path d="M180.357 29.1421V14.1685L183.081 14.8705V29.1421H180.357Z" fill="white"/>
<path d="M190.323 29.1421V14.1685H195.568C196.273 14.1685 196.937 14.2808 197.558 14.5124C198.173 14.7441 198.71 15.067 199.171 15.4812C199.632 15.8954 199.988 16.4008 200.254 16.9765C200.519 17.5521 200.652 18.1909 200.652 18.8929C200.652 19.6019 200.519 20.2478 200.254 20.8304C199.988 21.4061 199.632 21.9045 199.171 22.3257C198.717 22.7469 198.173 23.0698 197.558 23.3015C196.937 23.5331 196.28 23.6455 195.568 23.6455H193.137V29.1492H190.323V29.1421ZM195.61 20.9638C196.343 20.9638 196.902 20.7532 197.272 20.339C197.642 19.9249 197.837 19.4405 197.837 18.8929C197.837 18.6262 197.789 18.3734 197.705 18.1207C197.614 17.868 197.474 17.6504 197.286 17.4608C197.097 17.2713 196.867 17.1239 196.587 17.0116C196.308 16.8992 195.987 16.8431 195.61 16.8431H193.13V20.9638H195.61Z" fill="white"/>
<path d="M208.18 28.054H208.013C207.691 28.4472 207.307 28.7771 206.86 29.0579C206.406 29.3387 205.834 29.4791 205.121 29.4791C204.591 29.4791 204.102 29.3878 203.634 29.2194C203.173 29.0439 202.761 28.8052 202.419 28.4963C202.077 28.1874 201.804 27.8224 201.609 27.3871C201.413 26.9519 201.315 26.4816 201.315 25.9621C201.315 25.4356 201.42 24.9512 201.63 24.53C201.839 24.1088 202.132 23.7367 202.503 23.4349C202.88 23.126 203.32 22.8943 203.823 22.7329C204.332 22.5714 204.877 22.4942 205.478 22.4942C206.141 22.4942 206.693 22.5504 207.119 22.6557C207.552 22.761 207.901 22.8663 208.18 22.9786V22.6627C208.18 22.1151 207.964 21.6658 207.538 21.3148C207.105 20.9568 206.574 20.7813 205.939 20.7813C204.996 20.7813 204.2 21.1815 203.543 21.9747L201.567 20.6128C202.649 19.2509 204.123 18.563 206.001 18.563C207.58 18.563 208.788 18.935 209.619 19.6862C210.45 20.4303 210.869 21.5395 210.869 22.9996V29.1492H208.187V28.054H208.18ZM208.18 24.9863C207.859 24.8319 207.531 24.7125 207.189 24.6213C206.853 24.53 206.476 24.4879 206.078 24.4879C205.429 24.4879 204.926 24.6283 204.57 24.9161C204.214 25.2039 204.039 25.5549 204.039 25.9691C204.039 26.3903 204.207 26.7202 204.549 26.973C204.884 27.2257 205.282 27.352 205.722 27.352C206.085 27.352 206.413 27.2889 206.721 27.1555C207.028 27.0221 207.286 26.8466 207.503 26.636C207.719 26.4184 207.887 26.1727 208.006 25.8849C208.117 25.583 208.18 25.2882 208.18 24.9863Z" fill="white"/>
<path d="M215.583 20.4865H215.751C216.03 19.974 216.435 19.5528 216.966 19.2439C217.497 18.928 218.09 18.7736 218.747 18.7736C218.984 18.7736 219.173 18.7806 219.312 18.7947C219.452 18.8087 219.585 18.8368 219.71 18.8789V21.5956C219.557 21.5254 219.389 21.4693 219.201 21.4272C219.012 21.385 218.789 21.364 218.523 21.364C217.664 21.364 216.987 21.6237 216.491 22.1502C215.995 22.6697 215.751 23.3858 215.751 24.2913V29.3106H213.027V19.0614H215.59V20.4865H215.583ZM222.72 21.2376H220.933V18.8929H222.72V16.457L225.444 15.755V18.8929H227.944V21.2376H225.444V25.3303C225.444 25.576 225.465 25.8006 225.514 26.0112C225.563 26.2218 225.654 26.3973 225.793 26.5377C225.989 26.7694 226.261 26.8817 226.624 26.8817C226.862 26.8817 227.05 26.8607 227.19 26.8115C227.33 26.7624 227.462 26.6992 227.588 26.615L228.356 29.0228C228.035 29.1773 227.693 29.2896 227.33 29.3668C226.966 29.444 226.554 29.4791 226.114 29.4791C225.605 29.4791 225.144 29.3949 224.732 29.2334C224.32 29.072 223.977 28.8473 223.705 28.5595C223.056 27.9207 222.727 27.0081 222.727 25.8287V21.2376H222.72Z" fill="white"/>
<path d="M232.609 20.2338H232.777C233.098 19.7213 233.524 19.3141 234.069 19.0123C234.607 18.7104 235.228 18.563 235.92 18.563C236.555 18.563 237.121 18.6683 237.61 18.8789C238.092 19.0895 238.497 19.3843 238.804 19.7704C239.118 20.1565 239.356 20.6128 239.509 21.1534C239.67 21.6869 239.747 22.2836 239.747 22.9435V29.1562H237.023V23.2664C237.023 22.5293 236.855 21.9817 236.534 21.6237C236.206 21.2727 235.731 21.0902 235.109 21.0902C234.732 21.0902 234.404 21.1674 234.118 21.3289C233.831 21.4903 233.594 21.708 233.392 21.9747C233.189 22.2485 233.035 22.5714 232.938 22.9365C232.833 23.3085 232.784 23.7016 232.784 24.1158V29.1351H230.06V18.8929H232.623V20.2338H232.609Z" fill="white"/>
<path d="M251.647 26.6781C251.172 27.5135 250.536 28.1944 249.74 28.7069C248.944 29.2194 247.966 29.4791 246.814 29.4791C246.039 29.4791 245.32 29.3457 244.663 29.0719C244.007 28.7982 243.434 28.4191 242.945 27.9347C242.463 27.4503 242.079 26.8747 241.814 26.2078C241.541 25.5479 241.409 24.8178 241.409 24.0175C241.409 23.2804 241.541 22.5784 241.807 21.9186C242.072 21.2587 242.435 20.676 242.91 20.1846C243.378 19.6862 243.937 19.2931 244.586 18.9982C245.229 18.7034 245.941 18.556 246.723 18.556C247.54 18.556 248.267 18.6893 248.909 18.9631C249.545 19.2369 250.083 19.609 250.509 20.0934C250.941 20.5777 251.263 21.1464 251.486 21.7992C251.71 22.4521 251.821 23.1681 251.821 23.9333C251.821 24.0316 251.821 24.1158 251.821 24.186C251.807 24.2703 251.8 24.3475 251.8 24.4177C251.787 24.4879 251.78 24.5651 251.78 24.6493H244.104C244.16 25.0705 244.272 25.4286 244.447 25.7234C244.621 26.0253 244.838 26.278 245.089 26.4745C245.348 26.6781 245.627 26.8255 245.934 26.9168C246.241 27.0081 246.549 27.0502 246.87 27.0502C247.492 27.0502 248.008 26.9098 248.42 26.622C248.832 26.3341 249.154 25.9761 249.384 25.5479L251.647 26.6781ZM249.168 22.7048C249.154 22.5223 249.098 22.3187 248.993 22.1011C248.888 21.8835 248.735 21.6658 248.539 21.4763C248.337 21.2797 248.085 21.1183 247.792 20.9989C247.492 20.8726 247.135 20.8094 246.723 20.8094C246.137 20.8094 245.627 20.9779 245.18 21.3148C244.733 21.6518 244.426 22.1151 244.244 22.7188H249.168V22.7048Z" fill="white"/>
<path d="M253.56 18.8929H256.123V20.318H256.291C256.417 20.0653 256.584 19.8406 256.794 19.63C257.003 19.4194 257.234 19.2369 257.492 19.0825C257.751 18.928 258.03 18.8017 258.323 18.7034C258.624 18.6051 258.917 18.556 259.21 18.556C259.573 18.556 259.881 18.5981 260.139 18.6753C260.397 18.7525 260.614 18.8508 260.795 18.9772L260.069 21.4272C259.902 21.3429 259.72 21.2797 259.517 21.2306C259.315 21.1815 259.071 21.1604 258.777 21.1604C258.4 21.1604 258.065 21.2306 257.758 21.385C257.45 21.5325 257.192 21.736 256.975 22.0028C256.759 22.2696 256.591 22.5784 256.473 22.9365C256.354 23.2945 256.298 23.6806 256.298 24.1018V29.1492H253.574V18.8929H253.56Z" fill="white"/>
<path d="M265.649 29.4791C264.986 29.4791 264.392 29.3949 263.868 29.2264C263.352 29.0579 262.898 28.8403 262.514 28.5665C262.129 28.2927 261.808 27.9838 261.543 27.6258C261.277 27.2678 261.082 26.9098 260.942 26.5518L263.379 25.5058C263.617 26.0323 263.931 26.4324 264.329 26.6851C264.727 26.9449 265.167 27.0712 265.649 27.0712C266.152 27.0712 266.543 26.98 266.836 26.7975C267.13 26.6149 267.276 26.3973 267.276 26.1516C267.276 25.8708 267.158 25.6462 266.913 25.4707C266.669 25.2952 266.25 25.1407 265.656 25.0003L264.218 24.6844C263.896 24.6142 263.568 24.5019 263.226 24.3475C262.891 24.193 262.576 23.9965 262.304 23.7648C262.025 23.5261 261.794 23.2453 261.62 22.9084C261.438 22.5714 261.347 22.1853 261.347 21.736C261.347 21.2306 261.459 20.7883 261.668 20.3952C261.885 20.0021 262.178 19.6722 262.555 19.3984C262.933 19.1246 263.372 18.914 263.875 18.7736C264.385 18.6262 264.93 18.556 265.509 18.556C266.48 18.556 267.346 18.7455 268.107 19.1316C268.869 19.5177 269.434 20.1285 269.79 20.9638L267.437 21.9256C267.241 21.5184 266.955 21.2306 266.585 21.0481C266.208 20.8656 265.838 20.7743 265.461 20.7743C265.07 20.7743 264.734 20.8515 264.441 21.013C264.148 21.1744 264.001 21.378 264.001 21.6307C264.001 21.8694 264.12 22.059 264.364 22.1923C264.609 22.3327 264.937 22.4591 265.356 22.5714L266.92 22.9505C267.961 23.2032 268.736 23.6034 269.239 24.1509C269.749 24.7055 270 25.3513 270 26.1095C270 26.5588 269.895 26.98 269.686 27.3871C269.476 27.7943 269.183 28.1523 268.799 28.4612C268.415 28.7771 267.961 29.0228 267.423 29.2053C266.899 29.3878 266.306 29.4791 265.649 29.4791Z" fill="white"/>
<defs>
<linearGradient id="paint0_linear" x1="14.9047" y1="26.8703" x2="24.1471" y2="48.0185" gradientUnits="userSpaceOnUse">
<stop stop-color="#32E1A5"/>
<stop offset="1" stop-color="#25BDAD"/>
</linearGradient>
<linearGradient id="paint1_linear" x1="5.99333" y1="-1.99778" x2="25.5949" y2="9.99572" gradientUnits="userSpaceOnUse">
<stop stop-color="#32E1A5"/>
<stop offset="1" stop-color="#25BDAD"/>
</linearGradient>
<linearGradient id="paint2_linear" x1="31.2783" y1="-1.99778" x2="50.8798" y2="9.99572" gradientUnits="userSpaceOnUse">
<stop stop-color="#32E1A5"/>
<stop offset="1" stop-color="#25BDAD"/>
</linearGradient>
</defs>
</svg>
